# xmcd CD database file
#
# Track frame offsets:
#	150
#	11396
#	24956
#	46759
#	59975
#	76487
#	88755
#	108468
#	121225
#	130918
#	144072
#	159053
#	173946
#	191450
#	205004
#
# Disc length: 2888 seconds
#
# Revision: 1
# Processed by: cddbd v1.5.2PL0 Copyright (c) Steve Scherf et al.
# Submitted via: jetAudio 5
#
DISCID=b80b460f
DTITLE=Various  - A Country Music Christmas
DYEAR=1900
DGENRE=
TTITLE0=Come On Ring Those Bells
TTITLE1=An Old Fashoned Cristmas
TTITLE2=O Holy Night
TTITLE3=Hark! The Harold Angels Sing
TTITLE4=Star
TTITLE5=Santa's Got Daddy's Boots On
TTITLE6=Have Yourself A Merry Christmas
TTITLE7=What Child is This?
TTITLE8=Old Toy Trains
TTITLE9=Away in the Manger
TTITLE10=O Little Town of Bethlehem
TTITLE11=Little Drummer Boy
TTITLE12=Silent Night
TTITLE13=Last Christmas
TTITLE14=Joy to the World
EXTD=
EXTT0=
EXTT1=
EXTT2=
EXTT3=
EXTT4=
EXTT5=
EXTT6=
EXTT7=
EXTT8=
EXTT9=
EXTT10=
EXTT11=
EXTT12=
EXTT13=
EXTT14=
PLAYORDER=
